<?xml version="1.0" encoding="UTF-8"?>
<svg id="Layer_1" xmlns="http://www.w3.org/2000/svg" version="1.1" viewBox="0 0 794 794">
  <!-- Generator: Adobe Illustrator 29.6.1, SVG Export Plug-In . SVG Version: 2.1.1 Build 9)  -->
  <rect x="23.51" y="71" width="756.49" height="653" display="none"/>
  <path d="M275.19,206.38l72.87,51.72c4.66,1.55,10.33-4.66,18.88,1.04,6.63,4.41,6.98,11.14,6.25,18.26l66.5,48.07c5.5-1.28,8.16-4.06,13.89-.9,30.27-15.7,59.5-34.46,89.09-51.78,2.74-1.6,8.67-3.58,10.29-4.71,2.84-1.98.85-13.12,11.12-17.88,16.06-7.43,26.34,7.69,23.36,22.35l54.03,66.06c2.98,4.55,7.51,2.24,12.24,3.76s8.73,7.04,9.21,11.84c.27,2.64-.9,5.21-.66,6.75.93,6.12,76.95,77.06,85.16,89.7,4.72,1.45,9.27,1.07,14.09,2.92,15.94,6.13,9.83,29.83-7.08,30.06-3.26.05-4.13-2.17-7.25-.93-.73.54-3.69,2.45-5.83,4.33-21.41,17.94-37.67,40.17-58.42,59.02-2.92,5.02,3.37,11.34-3.96,19.05-8.88,9.33-22.38,3.65-27.04-6.94-35.98-6.45-72.93-12.19-109.39-16.49-9.4,6.56-16.35-1.57-24.88,3.11-18.89,10.37-35.86,24.73-54.67,35.33-1.52,3.17-1.75,8.09-4.11,10.9-.85,1.01-6.14,4.32-7.45,4.5-6.06.84-14.31-.51-17.33-6.54-1.38-2.76-.66-5.17-1.64-7.36-2.53-5.65-60.24-33.12-68.79-40.26-3.05-2.05-5.18,1.12-7.65,1.78-6.25,1.67-13.5-.35-16.88-6.19-1.85-3.19-1.35-6.18-2.36-8.64-1.65-4.02-65.13-32.82-73.54-38.54-3.45-.58-6.93,2.05-10.64,1.79-3.44-.25-6.13-3.13-10.07-3.02-2.71.08-7.93,2.31-10.81,3.29-23.68,8.08-46.49,19.52-70.1,27.9-3.22,2.17-2.84,6.27-5.2,9.8-7.36,11.03-24.12,7.25-27.2-5.67-.51-2.13.14-4.54-.44-6.56-1.13-3.93-56.59-46.29-63.89-51.11-7.84-5.17-11.13-.36-19.34-1.66-12.74-2.02-14.99-21.35-3.91-27.78,4.17-2.42,7.16-1.31,10.64-2.36,4.64-1.41,52.4-66.82,59.74-76.26,13.25-17.03,26.97-33.74,40.46-50.58,1.69-2.75-1.07-4.94-1.46-7.52-1.21-8.04,5.85-16.06,13.71-17.2,3.15-.46,6.23.8,7.64.54,5.28-.99,62.8-65.18,71.59-73.29.14-6.84-1.36-12.69,4.12-17.88,11.36-10.76,31.29-1.42,27.09,14.2h.02ZM339.79,274.39c2.47-4.21-4.56-8.34-7.46-10.64-14.19-11.24-40.81-30.03-56.42-38.58-2.43-1.33-4.99-3.57-7.91-2.12-2.15,1.07-2.8,10.99-2.99,14.04-1.63,26.3-2.99,83.26-3,85.48l77.79-48.18h-.01ZM182.25,297.34c18.31,6.87,35.64,16.49,53.79,23.7,2.62,1.04,9.88,4.66,12.03,3.11l3.93-100.58-4.52,2.97-65.55,65.49c-1.5,1.57-.77,3.7.32,5.3h0ZM556.99,279.59l-95.81,56.17.31,3.83,62.57,41.51,3.28-.44,29.66-101.07h-.01ZM541.01,382.58c29.43-7.73,57.95-19.6,87.27-28.22,9.32-2.33.22-10.64-3.31-15.25-11.95-15.66-28.08-36.49-41.46-50.54-3.31-3.48-9.91-11.34-13.01-3.99l-29.49,98ZM267.04,339.53s74.5,44.92,76.96,44.6,1.99-1.98,2.05-4.01,1.68-60.08,3.91-89.99c-.44-2.94-1.97-5.43-5.21-4.37-9.28,5.34-15.5,8.9-22.67,13.43-13.66,8.62-40.66,24.87-51.99,34.97-1.22,1.09-4.35,3.45-3.05,5.37ZM358,384.57l74.94-46.61-68.48-49.46c-3-.7-3.23,2-3.47,4.56-1.28,27.65-2.02,58.49-2.99,86.16-.25,1.99,0,5.35,0,5.35ZM166,408.57c.99.71,5.04-2.67,6.01-3.48,17.54-14.47,38.83-35.4,55.51-51.49,2.02-1.94,11.32-10.63,11.98-12.05.85-1.83.77-2.94-.43-4.56-1.39-1.87-17.87-9.01-21.4-10.6-6.82-3.07-31.57-14.39-37.18-14.83-1.84-.15-3.81-.26-5.56.45l-8.93,96.56h0ZM153.16,406.14s6.45-58.12,8.23-87.26l-92.96,118.53,1.47,1.48s71.14-16.21,76.27-17.31,6.99-15.44,6.99-15.44ZM441,350.58c-1.4-.3-2.44-1-3.94-.51-3.19,1.04-17.08,10.48-21.42,13.22-17.2,10.88-33.57,21.82-50.68,32.82-.56,3.25,8.46,8.89,11.13,10.88,20.44,15.22,42.67,28.77,63.3,43.64.35-.01,1.4-1.62,1.61-2.05v-98ZM453,446.58l65.08-51.52c.23-2.27-1.49-3.73-3.16-4.89l-61.91-40.59v97h-.01ZM260,461.58c11.4-7.45,21.06-17.33,31.53-25.97,12.77-10.55,30.06-22.21,41.48-33.52,2.79-2.76,4.93-4.75.95-7.98l-69.24-41.76c-3.04-2.81-4.72,3.92-4.72,5.73v103.5h0ZM247.99,353.59l-76,70.47,73.49,39.54,2.51-110.01h0ZM547.33,398.27l70.15,57.31,20.11-87.02c-.7-1.83-1.68-3.41-3.83-2.83l-85.34,27.76c-2.93.71-2.88,2.68-1.09,4.78ZM735,458.57c.63-.89-3.59-5.95-4.48-7-23.7-27.89-51.9-52.38-76.51-79.49l-3-1.49-19.59,87.06,103.58.93h0ZM525,408.58c-2.7-4.48-8.13,1.69-11.19,4.18-18.45,15.03-34.69,29.31-52.51,45.1-3.85,4.7,1.86,8.62,5.22,11.69,14.64,13.37,39.77,33.61,55.96,45.09,1.4,1,4.37,3.62,4.52.46.5-10.44,0-33.06,0-33.06-.15-12.72-.29-25.45-.44-38.17-.16-10.63-.33-21.26-.49-31.89-.03-.34-.09-.72-.18-1.11-.22-.94-.56-1.71-.89-2.29ZM537.01,407.59l2.52,109,68.43-50.61c.27-1.29-3.84-4.87-4.94-5.91-14.28-13.45-33.05-27.96-48.54-40.46-2.12-1.71-15.91-13.65-17.47-12.02h0ZM344,514.08v-103.5c-9.32,6.73-18.49,13.84-27.47,21.03-14.19,11.37-32.04,24.76-45,37-1.99,1.88-7.18,5.8-3.26,8.24,17.3,10.81,40.2,21.95,58.71,31.25,2.1,1.06,13.88,7.27,14.7,7.34.95.08,2.11-.58,2.32-1.36h0ZM357,411.58c-.82.78-1.22,1.06-1.05,2.4l-.03,94.17c.2,1.95,1.28,4.82,3.61,4.43s70-46.97,70-46.97c4.58-4.68-2.76-8.2-6.21-10.85-16.43-12.59-36.66-26.55-54-38-2.48-1.64-9.71-7.66-12.32-5.18h0ZM139.93,505.51c2.83-1.93,12.19-64.32,10.82-67.66s-7.84-3.69-12.76-2.77c-22.66,4.22-45.04,11.42-67.55,16.45-1.96,3.48,2.07,3.67,4.48,5.64,17.28,14.2,40.37,34.66,58.75,46.25,1.5.94,4.51,3.29,6.26,2.1h0ZM234.82,472.75c-9.34-3.09-64.17-36.44-69.1-35.04-2.59.73-2.91,4.37-3.43,6.65-2.53,10.99-4.29,26.68-5.78,38.2-1.11,8.54-1.85,17.4-2.5,26.02,1.81,1.78,16-6.25,19.01-7.49,7.79-3.2,59.9-21.56,61.5-24.5.56-1.02.9-2.81.3-3.84h0ZM634,470.58c-1.06,4.44.17,6.15,2.12,10.38,5.59,12.12,14.47,25.08,21.05,36.95,2.48,4.47,6.24,14.82,8.77,17.96,3.86,4.78,12.73-3.91,15.95-6.89,18.09-16.76,34.58-37.3,53.15-53.85,2.26-3.3.73-5.08-2.52-5.76l-99.03.2.5,1h0ZM439.99,474.58c-1.16-.79-10.06,5.36-11.9,6.59-16.61,11.15-42.9,27.15-57.03,39.97-1.62,1.47-4.31,4.7-4.13,6.92.32,4.02,62.34,34.82,69.76,40.36,2.09.19,3.46-2.45,3.36-4.29-1.35-10.6,3.65-87.03-.06-89.54h0ZM453,566.58c1.11,3.09,4.93,1,6.67.17,14.38-6.89,38.18-22.86,51.63-32.36,3.19-2.25,7.02-4.03,4.19-8.81-.31-.52-7.67-6.8-9.02-7.97-12.03-10.41-27.75-23.05-40.56-32.44-1.73-1.27-11.68-8.87-12.91-7.59v89ZM653.92,544.52l.34-4.61c-8.22-13.35-15.17-27.5-23.09-41-2.58-4.4-10.32-19.72-14.73-20.36-1.19-.18-2.36-.07-3.43.55l-66.01,48c-.51,2.36,4.17,2.93,5.77,3.22,21.99,3.92,44.68,6.43,66.61,9.39,11.5,1.56,23.02,3.57,34.54,4.82h0Z" fill="#5daaa2"/>
</svg>